<svg width="20" height="20" viewBox="0 0 20 20" fill="none" xmlns="http://www.w3.org/2000/svg">
<g clip-path="url(#clip0_3458_32706)">
<path fill-rule="evenodd" clip-rule="evenodd" d="M1.76775 12.9458C0.140567 11.3186 0.140567 8.68043 1.76775 7.05324L7.05373 1.76726C8.68092 0.140079 11.3191 0.140079 12.9463 1.76726L18.2323 7.05324C19.8595 8.68043 19.8595 11.3186 18.2323 12.9458L12.9463 18.2318C11.3191 19.859 8.68092 19.859 7.05373 18.2318L1.76775 12.9458ZM2.94626 8.23175C1.96995 9.20807 1.96995 10.791 2.94626 11.7673L8.23224 17.0533C9.20855 18.0296 10.7915 18.0296 11.7678 17.0533L17.0538 11.7673C18.0301 10.791 18.0301 9.20806 17.0538 8.23175L11.7678 2.94577C10.7915 1.96946 9.20855 1.96946 8.23224 2.94577L2.94626 8.23175Z" fill="#9C9DA6"/>
</g>
<defs>
<clipPath id="clip0_3458_32706">
<rect width="20" height="20" fill="white"/>
</clipPath>
</defs>
</svg>
