<svg width="22" height="22" viewBox="0 0 22 22" fill="none" xmlns="http://www.w3.org/2000/svg">
<path d="M15.732 17.8929C16.3433 17.8929 16.9296 18.1509 17.3618 18.6101C17.7941 19.0694 18.0369 19.6923 18.0369 20.3418C18.0369 19.6923 18.2798 19.0694 18.712 18.6101C19.1443 18.1509 19.7305 17.8929 20.3418 17.8929C19.7305 17.8929 19.1443 17.6348 18.712 17.1756C18.2798 16.7163 18.0369 16.0934 18.0369 15.4439C18.0369 16.0934 17.7941 16.7163 17.3618 17.1756C16.9296 17.6348 16.3433 17.8929 15.732 17.8929ZM15.732 3.19898C16.3433 3.19898 16.9296 3.457 17.3618 3.91627C17.7941 4.37554 18.0369 4.99845 18.0369 5.64796C18.0369 4.99845 18.2798 4.37554 18.712 3.91627C19.1443 3.457 19.7305 3.19898 20.3418 3.19898C19.7305 3.19898 19.1443 2.94096 18.712 2.48169C18.2798 2.02242 18.0369 1.39951 18.0369 0.75C18.0369 1.39951 17.7941 2.02242 17.3618 2.48169C16.9296 2.94096 16.3433 3.19898 15.732 3.19898ZM7.66477 17.8929C7.66477 15.9443 8.39328 14.0756 9.69005 12.6978C10.9868 11.32 12.7456 10.5459 14.5795 10.5459C12.7456 10.5459 10.9868 9.77187 9.69005 8.39405C8.39328 7.01623 7.66477 5.14751 7.66477 3.19898C7.66477 5.14751 6.93625 7.01623 5.63948 8.39405C4.34271 9.77187 2.58391 10.5459 0.75 10.5459C2.58391 10.5459 4.34271 11.32 5.63948 12.6978C6.93625 14.0756 7.66477 15.9443 7.66477 17.8929Z" stroke="url(#paint0_linear_3848_41710)" stroke-width="1.5" stroke-linecap="round" stroke-linejoin="round"/>
<defs>
<linearGradient id="paint0_linear_3848_41710" x1="1.7175" y1="4.20738" x2="18.0862" y2="15.6158" gradientUnits="userSpaceOnUse">
<stop offset="0.11417" stop-color="#9966FF"/>
<stop offset="0.384463" stop-color="#0073E6"/>
<stop offset="0.648749" stop-color="#FAB000"/>
<stop offset="0.900799" stop-color="#15BE53"/>
</linearGradient>
</defs>
</svg>
