<svg width="17" height="17" viewBox="0 0 17 17" fill="none" xmlns="http://www.w3.org/2000/svg">
<path d="M12.5 1.11658C13.7569 1.84229 14.8025 2.88368 15.5332 4.13766C16.2639 5.39164 16.6545 6.81472 16.6662 8.26603C16.6779 9.71733 16.3104 11.1465 15.6 12.4122C14.8896 13.6778 13.861 14.7359 12.616 15.4818C11.371 16.2278 9.95281 16.6356 8.50175 16.665C7.05069 16.6943 5.61713 16.3442 4.34296 15.6493C3.0688 14.9543 1.99823 13.9387 1.23722 12.7028C0.476219 11.467 0.0511744 10.0538 0.00416676 8.60324L0 8.33324L0.00416676 8.06324C0.050836 6.62407 0.469623 5.22155 1.2197 3.9924C1.96978 2.76326 3.02554 1.74945 4.28408 1.04981C5.54261 0.350171 6.96096 -0.0114257 8.40084 0.000275205C9.84072 0.0119761 11.253 0.396575 12.5 1.11658ZM11.4225 6.07741C11.279 5.93393 11.0881 5.84774 10.8856 5.835C10.683 5.82227 10.4828 5.88387 10.3225 6.00824L10.2442 6.07741L7.5 8.82074L6.4225 7.74408L6.34417 7.67491C6.18382 7.55062 5.98364 7.4891 5.78117 7.50187C5.5787 7.51465 5.38784 7.60084 5.24439 7.7443C5.10093 7.88775 5.01474 8.07861 5.00196 8.28108C4.98919 8.48355 5.05071 8.68373 5.175 8.84408L5.24417 8.92241L6.91083 10.5891L6.98917 10.6582C7.13531 10.7716 7.31503 10.8332 7.5 10.8332C7.68497 10.8332 7.86469 10.7716 8.01083 10.6582L8.08917 10.5891L11.4225 7.25574L11.4917 7.17741C11.616 7.01707 11.6776 6.81686 11.6649 6.61434C11.6522 6.41182 11.566 6.22091 11.4225 6.07741Z" fill="#2EC277"/>
</svg>
