<svg width="18" height="18" viewBox="0 0 18 18" fill="none" xmlns="http://www.w3.org/2000/svg">
<path d="M11.2505 5.25034L6.37551 10.1253C6.07714 10.4237 5.90952 10.8284 5.90952 11.2503C5.90952 11.6723 6.07714 12.077 6.37551 12.3753C6.67388 12.6737 7.07855 12.8413 7.50051 12.8413C7.92247 12.8413 8.32714 12.6737 8.62551 12.3753L13.5005 7.50034C14.0972 6.9036 14.4325 6.09425 14.4325 5.25034C14.4325 4.40643 14.0972 3.59708 13.5005 3.00034C12.9038 2.4036 12.0944 2.06836 11.2505 2.06836C10.4066 2.06836 9.59725 2.4036 9.00051 3.00034L4.12551 7.87534C3.2304 8.77045 2.72754 9.98447 2.72754 11.2503C2.72754 12.5162 3.2304 13.7302 4.12551 14.6253C5.02062 15.5204 6.23464 16.0233 7.50051 16.0233C8.76638 16.0233 9.9804 15.5204 10.8755 14.6253L15.7505 9.75034" stroke="#596773" stroke-width="1.5" stroke-linecap="round" stroke-linejoin="round"/>
</svg>
