<svg width="101" height="101" viewBox="0 0 101 101" fill="none" xmlns="http://www.w3.org/2000/svg">
<circle cx="50.5" cy="50.5" r="40.5" fill="#F3F0FF"/>
<path d="M56.9045 64.3462V66.0769C56.9045 67.9887 56.2306 69.6205 54.8826 70.9723C53.5347 72.3241 51.9076 73 50.0013 73C48.095 73 46.4679 72.3241 45.12 70.9723C43.772 69.6205 43.0981 67.9887 43.0981 66.0769V64.3462M68.5192 60.823C65.7493 57.4231 63.7937 55.6923 63.7937 46.3191C63.7937 37.7356 59.4231 34.6775 55.8259 33.1923C55.3481 32.9954 54.8983 32.5433 54.7527 32.0511C54.1217 29.8974 52.3527 28 50.0013 28C47.6499 28 45.8798 29.8984 45.2553 32.0532C45.1097 32.5508 44.6599 32.9954 44.1821 33.1923C40.5805 34.6797 36.2142 37.7269 36.2142 46.3191C36.2088 55.6923 34.2533 57.4231 31.4834 60.823C30.3357 62.2314 31.341 64.3462 33.3483 64.3462H66.6651C68.6616 64.3462 69.6604 62.2249 68.5192 60.823Z" stroke="#B8ACF6" stroke-width="4" stroke-linecap="round" stroke-linejoin="round"/>
<circle cx="62.5" cy="37.5" r="12" fill="#F3F0FF"/>
<circle cx="62.5" cy="37.5" r="8" fill="#B8ACF6"/>
<path d="M62.4981 42.7237C61.643 42.7204 60.9072 42.5099 60.2907 42.0923C59.6776 41.6747 59.2053 41.0698 58.8738 40.2777C58.5457 39.4856 58.3833 38.5327 58.3866 37.419C58.3866 36.3087 58.5507 35.3625 58.8788 34.5803C59.2103 33.7981 59.6826 33.2031 60.2957 32.7955C60.9122 32.3845 61.6463 32.179 62.4981 32.179C63.3499 32.179 64.0824 32.3845 64.6956 32.7955C65.3121 33.2064 65.786 33.803 66.1175 34.5852C66.4489 35.3641 66.613 36.3087 66.6096 37.419C66.6096 38.536 66.4439 39.4905 66.1125 40.2827C65.7844 41.0748 65.3137 41.6797 64.7006 42.0973C64.0874 42.5149 63.3532 42.7237 62.4981 42.7237ZM62.4981 40.9389C63.0815 40.9389 63.5471 40.6456 63.8952 40.0589C64.2432 39.4723 64.4155 38.5923 64.4122 37.419C64.4122 36.6468 64.3327 36.0038 64.1736 35.4901C64.0178 34.9763 63.7957 34.5902 63.5074 34.3317C63.2223 34.0732 62.8859 33.9439 62.4981 33.9439C61.9181 33.9439 61.4541 34.2339 61.1061 34.8139C60.7581 35.3939 60.5824 36.2623 60.5791 37.419C60.5791 38.2012 60.657 38.8542 60.8128 39.3778C60.9719 39.8982 61.1956 40.2893 61.4839 40.5511C61.7723 40.8097 62.1104 40.9389 62.4981 40.9389Z" fill="white"/>
</svg>
