<svg width="20" height="20" viewBox="0 0 20 20" fill="none" xmlns="http://www.w3.org/2000/svg">
<path d="M13.3333 2.5V5.83333M6.66666 2.5V5.83333M3.33333 9.16667H16.6667M9.16666 12.5H9.99999V15M3.33333 5.83333C3.33333 5.39131 3.50892 4.96738 3.82148 4.65482C4.13404 4.34226 4.55797 4.16667 4.99999 4.16667H15C15.442 4.16667 15.8659 4.34226 16.1785 4.65482C16.4911 4.96738 16.6667 5.39131 16.6667 5.83333V15.8333C16.6667 16.2754 16.4911 16.6993 16.1785 17.0118C15.8659 17.3244 15.442 17.5 15 17.5H4.99999C4.55797 17.5 4.13404 17.3244 3.82148 17.0118C3.50892 16.6993 3.33333 16.2754 3.33333 15.8333V5.83333Z" stroke="#454F59" stroke-width="1.5" stroke-linecap="round" stroke-linejoin="round"/>
</svg>
