<svg width="15" height="17" viewBox="0 0 15 17" fill="none" xmlns="http://www.w3.org/2000/svg">
<path d="M0.75 4.08333H14.0833M5.75 7.41667V12.4167M9.08333 7.41667V12.4167M1.58333 4.08333L2.41667 14.0833C2.41667 14.5254 2.59226 14.9493 2.90482 15.2618C3.21738 15.5744 3.64131 15.75 4.08333 15.75H10.75C11.192 15.75 11.616 15.5744 11.9285 15.2618C12.2411 14.9493 12.4167 14.5254 12.4167 14.0833L13.25 4.08333M4.91667 4.08333V1.58333C4.91667 1.36232 5.00446 1.15036 5.16074 0.994078C5.31702 0.837797 5.52899 0.75 5.75 0.75H9.08333C9.30435 0.75 9.51631 0.837797 9.67259 0.994078C9.82887 1.15036 9.91667 1.36232 9.91667 1.58333V4.08333" stroke="#28293D" stroke-width="1.5" stroke-linecap="round" stroke-linejoin="round"/>
</svg>
