<svg width="42" height="42" viewBox="0 0 42 42" fill="none" xmlns="http://www.w3.org/2000/svg">
<rect width="42" height="42" rx="8" fill="#FFECF8"/>
<path d="M29 22V15C29 14.4696 28.7893 13.9609 28.4142 13.5858C28.0391 13.2107 27.5304 13 27 13H15C14.4696 13 13.9609 13.2107 13.5858 13.5858C13.2107 13.9609 13 14.4696 13 15V27C13 27.5304 13.2107 28.0391 13.5858 28.4142C13.9609 28.7893 14.4696 29 15 29H22M29 22H24C23.4696 22 22.9609 22.2107 22.5858 22.5858C22.2107 22.9609 22 23.4696 22 24V29M29 22V22.172C28.9999 22.7024 28.7891 23.211 28.414 23.586L23.586 28.414C23.211 28.7891 22.7024 28.9999 22.172 29H22" stroke="#AE4787" stroke-width="1.5" stroke-linecap="round" stroke-linejoin="round"/>
</svg>
