<svg width="48" height="48" viewBox="0 0 48 48" fill="none" xmlns="http://www.w3.org/2000/svg">
<path d="M47.5 24C47.5 36.9787 36.9787 47.5 24 47.5C11.0213 47.5 0.5 36.9787 0.500001 24C0.500002 11.0213 11.0213 0.5 24 0.500001C36.9787 0.500002 47.5 11.0213 47.5 24Z" fill="white"/>
<path d="M47.5 24C47.5 36.9787 36.9787 47.5 24 47.5C11.0213 47.5 0.5 36.9787 0.500001 24C0.500002 11.0213 11.0213 0.5 24 0.500001C36.9787 0.500002 47.5 11.0213 47.5 24Z" stroke="#F1F2F4"/>
<path d="M24 23C23.7348 23 23.4804 23.1054 23.2929 23.2929C23.1054 23.4804 23 23.7348 23 24C23 24.2652 23.1054 24.5196 23.2929 24.7071C23.4804 24.8946 23.7348 25 24 25C24.2652 25 24.5196 24.8946 24.7071 24.7071C24.8946 24.5196 25 24.2652 25 24C25 23.7348 24.8946 23.4804 24.7071 23.2929C24.5196 23.1054 24.2652 23 24 23Z" stroke="#1D2125" stroke-width="1.5" stroke-linecap="round" stroke-linejoin="round"/>
<path d="M17 23C16.7348 23 16.4804 23.1054 16.2929 23.2929C16.1054 23.4804 16 23.7348 16 24C16 24.2652 16.1054 24.5196 16.2929 24.7071C16.4804 24.8946 16.7348 25 17 25C17.2652 25 17.5196 24.8946 17.7071 24.7071C17.8946 24.5196 18 24.2652 18 24C18 23.7348 17.8946 23.4804 17.7071 23.2929C17.5196 23.1054 17.2652 23 17 23Z" stroke="#1D2125" stroke-width="1.5" stroke-linecap="round" stroke-linejoin="round"/>
<path d="M31 23C30.7348 23 30.4804 23.1054 30.2929 23.2929C30.1054 23.4804 30 23.7348 30 24C30 24.2652 30.1054 24.5196 30.2929 24.7071C30.4804 24.8946 30.7348 25 31 25C31.2652 25 31.5196 24.8946 31.7071 24.7071C31.8946 24.5196 32 24.2652 32 24C32 23.7348 31.8946 23.4804 31.7071 23.2929C31.5196 23.1054 31.2652 23 31 23Z" stroke="#1D2125" stroke-width="1.5" stroke-linecap="round" stroke-linejoin="round"/>
</svg>
