<svg width="16" height="4" viewBox="0 0 16 4" fill="none" xmlns="http://www.w3.org/2000/svg">
<path d="M1 1.83333C1 2.05435 1.0878 2.26631 1.24408 2.42259C1.40036 2.57887 1.61232 2.66667 1.83333 2.66667C2.05435 2.66667 2.26631 2.57887 2.42259 2.42259C2.57887 2.26631 2.66667 2.05435 2.66667 1.83333C2.66667 1.61232 2.57887 1.40036 2.42259 1.24408C2.26631 1.0878 2.05435 1 1.83333 1C1.61232 1 1.40036 1.0878 1.24408 1.24408C1.0878 1.40036 1 1.61232 1 1.83333Z" stroke="#28293D" stroke-width="2" stroke-linecap="round" stroke-linejoin="round"/>
<path d="M6.83333 1.83333C6.83333 2.05435 6.92113 2.26631 7.07741 2.42259C7.23369 2.57887 7.44565 2.66667 7.66667 2.66667C7.88768 2.66667 8.09964 2.57887 8.25592 2.42259C8.4122 2.26631 8.5 2.05435 8.5 1.83333C8.5 1.61232 8.4122 1.40036 8.25592 1.24408C8.09964 1.0878 7.88768 1 7.66667 1C7.44565 1 7.23369 1.0878 7.07741 1.24408C6.92113 1.40036 6.83333 1.61232 6.83333 1.83333Z" stroke="#28293D" stroke-width="2" stroke-linecap="round" stroke-linejoin="round"/>
<path d="M12.6667 1.83333C12.6667 2.05435 12.7545 2.26631 12.9107 2.42259C13.067 2.57887 13.279 2.66667 13.5 2.66667C13.721 2.66667 13.933 2.57887 14.0893 2.42259C14.2455 2.26631 14.3333 2.05435 14.3333 1.83333C14.3333 1.61232 14.2455 1.40036 14.0893 1.24408C13.933 1.0878 13.721 1 13.5 1C13.279 1 13.067 1.0878 12.9107 1.24408C12.7545 1.40036 12.6667 1.61232 12.6667 1.83333Z" stroke="#28293D" stroke-width="2" stroke-linecap="round" stroke-linejoin="round"/>
</svg>
