<svg width="20" height="20" viewBox="0 0 20 20" fill="none" xmlns="http://www.w3.org/2000/svg">
<path d="M2.5 6.6665L9.075 11.0498C9.35503 11.2367 9.66336 11.3301 10 11.3301C10.3366 11.3301 10.645 11.2367 10.925 11.0498L17.5 6.6665M4.16667 15.8332H15.8333C16.2936 15.8332 16.6864 15.6705 17.0118 15.345C17.3373 15.0196 17.5 14.6267 17.5 14.1665V5.83317C17.5 5.37293 17.3373 4.9801 17.0118 4.65466C16.6864 4.32922 16.2936 4.1665 15.8333 4.1665H4.16667C3.70643 4.1665 3.31359 4.32922 2.98816 4.65466C2.66272 4.9801 2.5 5.37293 2.5 5.83317V14.1665C2.5 14.6267 2.66272 15.0196 2.98816 15.345C3.31359 15.6705 3.70643 15.8332 4.16667 15.8332Z" stroke="#9CA3AF" stroke-width="1.66667" stroke-linecap="round" stroke-linejoin="round"/>
</svg>
