<svg width="42" height="42" viewBox="0 0 42 42" fill="none" xmlns="http://www.w3.org/2000/svg">
<rect width="42" height="42" rx="8" fill="#E9F2FF"/>
<path d="M25 28H31M28 25V31M15 30V28C15 26.9391 15.4214 25.9217 16.1716 25.1716C16.9217 24.4214 17.9391 24 19 24H23M17 16C17 17.0609 17.4214 18.0783 18.1716 18.8284C18.9217 19.5786 19.9391 20 21 20C22.0609 20 23.0783 19.5786 23.8284 18.8284C24.5786 18.0783 25 17.0609 25 16C25 14.9391 24.5786 13.9217 23.8284 13.1716C23.0783 12.4214 22.0609 12 21 12C19.9391 12 18.9217 12.4214 18.1716 13.1716C17.4214 13.9217 17 14.9391 17 16Z" stroke="#0C66E4" stroke-width="1.5" stroke-linecap="round" stroke-linejoin="round"/>
</svg>
