<svg width="64" height="64" viewBox="0 0 64 64" fill="none" xmlns="http://www.w3.org/2000/svg">
<rect x="0.5" y="0.5" width="63" height="63" rx="14.5" fill="white" stroke="#D9D9D9"/>
<path d="M41.8692 32.2285C41.87 31.5471 41.812 30.8669 41.6957 30.1953H32.2V34.0465H37.6387C37.5274 34.6616 37.2919 35.2479 36.9462 35.7702C36.6006 36.2924 36.1521 36.7398 35.6277 37.0852V39.5851H38.8736C40.7741 37.8449 41.8692 35.2714 41.8692 32.2285Z" fill="#4285F4"/>
<path d="M32.1999 41.9998C34.9172 41.9998 37.2051 41.1137 38.8735 39.586L35.6276 37.0861C34.7242 37.6944 33.5606 38.0416 32.1999 38.0416C29.5735 38.0416 27.3443 36.2834 26.5472 33.9141H23.2034V36.4903C24.0414 38.1465 25.3265 39.5387 26.9152 40.5116C28.5038 41.4844 30.3335 41.9997 32.1999 41.9998Z" fill="#34A853"/>
<path d="M26.5471 33.9156C26.1257 32.674 26.1257 31.3295 26.5471 30.088V27.5117H23.2033C22.4983 28.9049 22.1311 30.4425 22.1311 32.0018C22.1311 33.561 22.4983 35.0986 23.2033 36.4918L26.5471 33.9156Z" fill="#FBBC04"/>
<path d="M32.1999 25.9588C33.6359 25.9355 35.0234 26.4743 36.0626 27.4587L38.9365 24.6047C37.1141 22.9049 34.6999 21.9717 32.1999 22.0007C30.3335 22.0007 28.5038 22.516 26.9152 23.4889C25.3265 24.4617 24.0414 25.854 23.2034 27.5101L26.5472 30.0864C27.3443 27.717 29.5735 25.9588 32.1999 25.9588Z" fill="#EA4335"/>
</svg>
