<svg width="48" height="48" viewBox="0 0 48 48" fill="none" xmlns="http://www.w3.org/2000/svg">
<path d="M8 0.5H40C44.1421 0.5 47.5 3.85786 47.5 8V40C47.5 44.1421 44.1421 47.5 40 47.5H8C3.85786 47.5 0.5 44.1421 0.5 40V8C0.500001 3.85786 3.85787 0.5 8 0.5Z" stroke="#B3B9C4"/>
<path d="M19.8333 19.8334H18.9999C18.5579 19.8334 18.134 20.009 17.8214 20.3216C17.5088 20.6341 17.3333 21.0581 17.3333 21.5001V29.0001C17.3333 29.4421 17.5088 29.866 17.8214 30.1786C18.134 30.4912 18.5579 30.6668 18.9999 30.6668H26.4999C26.9419 30.6668 27.3659 30.4912 27.6784 30.1786C27.991 29.866 28.1666 29.4421 28.1666 29.0001V28.1668M27.3333 18.1668L29.8333 20.6668M30.9874 19.4876C31.3156 19.1594 31.5 18.7142 31.5 18.2501C31.5 17.7859 31.3156 17.3408 30.9874 17.0126C30.6592 16.6844 30.2141 16.5 29.7499 16.5C29.2858 16.5 28.8406 16.6844 28.5124 17.0126L21.4999 24.0001V26.5001H23.9999L30.9874 19.4876Z" stroke="#596773" stroke-width="1.5" stroke-linecap="round" stroke-linejoin="round"/>
</svg>
