<svg width="20" height="20" viewBox="0 0 20 20" fill="none" xmlns="http://www.w3.org/2000/svg">
<g clip-path="url(#clip0_2047_15160)">
<path d="M12.5 15V15.625C12.5 16.3154 12.2559 16.9046 11.7678 17.3928C11.2796 17.8809 10.6904 18.125 9.99999 18.125C9.30964 18.125 8.72038 17.8809 8.23223 17.3928C7.74407 16.9046 7.49999 16.3154 7.49999 15.625V15M16.7062 13.7277C15.7031 12.5 14.9949 11.875 14.9949 8.49023C14.9949 5.39062 13.4121 4.28633 12.1094 3.75C11.9363 3.67891 11.7734 3.51562 11.7207 3.33789C11.4922 2.56016 10.8516 1.875 9.99999 1.875C9.14843 1.875 8.50742 2.56055 8.28124 3.33867C8.22851 3.51836 8.06562 3.67891 7.89257 3.75C6.58828 4.28711 5.00703 5.3875 5.00703 8.49023C5.00507 11.875 4.29687 12.5 3.29374 13.7277C2.87812 14.2363 3.24218 15 3.96914 15H16.0348C16.7578 15 17.1195 14.234 16.7062 13.7277Z" stroke="#454F59" stroke-width="1.5" stroke-linecap="round" stroke-linejoin="round"/>
</g>
<defs>
<clipPath id="clip0_2047_15160">
<rect width="20" height="20" fill="white"/>
</clipPath>
</defs>
</svg>
