<svg width="23" height="23" viewBox="0 0 23 23" fill="none" xmlns="http://www.w3.org/2000/svg">
<path d="M8.91667 15.9167V6.58333H11.8333C12.6069 6.58333 13.3487 6.89062 13.8957 7.4376C14.4427 7.98459 14.75 8.72645 14.75 9.5C14.75 10.2735 14.4427 11.0154 13.8957 11.5624C13.3487 12.1094 12.6069 12.4167 11.8333 12.4167H8.91667M0.75 11.25C0.75 12.6289 1.02159 13.9943 1.54926 15.2682C2.07694 16.5421 2.85036 17.6996 3.82538 18.6746C4.80039 19.6496 5.95791 20.4231 7.23182 20.9507C8.50574 21.4784 9.87112 21.75 11.25 21.75C12.6289 21.75 13.9943 21.4784 15.2682 20.9507C16.5421 20.4231 17.6996 19.6496 18.6746 18.6746C19.6496 17.6996 20.4231 16.5421 20.9507 15.2682C21.4784 13.9943 21.75 12.6289 21.75 11.25C21.75 9.87112 21.4784 8.50574 20.9507 7.23182C20.4231 5.95791 19.6496 4.80039 18.6746 3.82538C17.6996 2.85036 16.5421 2.07694 15.2682 1.54927C13.9943 1.02159 12.6289 0.75 11.25 0.75C9.87112 0.75 8.50574 1.02159 7.23182 1.54927C5.95791 2.07694 4.80039 2.85036 3.82538 3.82538C2.85036 4.80039 2.07694 5.95791 1.54926 7.23182C1.02159 8.50574 0.75 9.87112 0.75 11.25Z" stroke="#44546F" stroke-width="1.5" stroke-linecap="round" stroke-linejoin="round"/>
</svg>
