<svg width="20" height="20" viewBox="0 0 20 20" fill="none" xmlns="http://www.w3.org/2000/svg">
<path d="M11.6654 3.33398V6.66732H6.66536V3.33398M4.9987 3.33398H13.332L16.6654 6.66732V15.0007C16.6654 15.4427 16.4898 15.8666 16.1772 16.1792C15.8646 16.4917 15.4407 16.6673 14.9987 16.6673H4.9987C4.55667 16.6673 4.13275 16.4917 3.82019 16.1792C3.50763 15.8666 3.33203 15.4427 3.33203 15.0007V5.00065C3.33203 4.55862 3.50763 4.1347 3.82019 3.82214C4.13275 3.50958 4.55667 3.33398 4.9987 3.33398ZM8.33203 11.6673C8.33203 12.1093 8.50763 12.5333 8.82019 12.8458C9.13275 13.1584 9.55667 13.334 9.9987 13.334C10.4407 13.334 10.8646 13.1584 11.1772 12.8458C11.4898 12.5333 11.6654 12.1093 11.6654 11.6673C11.6654 11.2253 11.4898 10.8014 11.1772 10.4888C10.8646 10.1762 10.4407 10.0007 9.9987 10.0007C9.55667 10.0007 9.13275 10.1762 8.82019 10.4888C8.50763 10.8014 8.33203 11.2253 8.33203 11.6673Z" stroke="white" stroke-width="1.5" stroke-linecap="round" stroke-linejoin="round"/>
</svg>
