<svg width="20" height="20" viewBox="0 0 20 20" fill="none" xmlns="http://www.w3.org/2000/svg">
<path d="M13.125 0.75V18.75M7.5 7.5L5.25 9.75L7.5 12M0.75 3C0.75 2.40326 0.987053 1.83097 1.40901 1.40901C1.83097 0.987053 2.40326 0.75 3 0.75H16.5C17.0967 0.75 17.669 0.987053 18.091 1.40901C18.5129 1.83097 18.75 2.40326 18.75 3V16.5C18.75 17.0967 18.5129 17.669 18.091 18.091C17.669 18.5129 17.0967 18.75 16.5 18.75H3C2.40326 18.75 1.83097 18.5129 1.40901 18.091C0.987053 17.669 0.75 17.0967 0.75 16.5V3Z" stroke="#454F59" stroke-width="1.5" stroke-linecap="round" stroke-linejoin="round"/>
</svg>
