<svg width="20" height="20" viewBox="0 0 20 20" fill="none" xmlns="http://www.w3.org/2000/svg">
<path d="M9.16663 10.0007C9.16663 10.2217 9.25442 10.4336 9.4107 10.5899C9.56698 10.7462 9.77895 10.834 9.99996 10.834C10.221 10.834 10.4329 10.7462 10.5892 10.5899C10.7455 10.4336 10.8333 10.2217 10.8333 10.0007C10.8333 9.77964 10.7455 9.56768 10.5892 9.4114C10.4329 9.25512 10.221 9.16732 9.99996 9.16732C9.77895 9.16732 9.56698 9.25512 9.4107 9.4114C9.25442 9.56768 9.16663 9.77964 9.16663 10.0007Z" stroke="#9C9DA6" stroke-width="2" stroke-linecap="round" stroke-linejoin="round"/>
<path d="M9.16663 15.834C9.16663 16.055 9.25442 16.267 9.4107 16.4232C9.56698 16.5795 9.77895 16.6673 9.99996 16.6673C10.221 16.6673 10.4329 16.5795 10.5892 16.4232C10.7455 16.267 10.8333 16.055 10.8333 15.834C10.8333 15.613 10.7455 15.401 10.5892 15.2447C10.4329 15.0884 10.221 15.0007 9.99996 15.0007C9.77895 15.0007 9.56698 15.0884 9.4107 15.2447C9.25442 15.401 9.16663 15.613 9.16663 15.834Z" stroke="#9C9DA6" stroke-width="2" stroke-linecap="round" stroke-linejoin="round"/>
<path d="M9.16663 4.16732C9.16663 4.38833 9.25442 4.60029 9.4107 4.75657C9.56698 4.91285 9.77895 5.00065 9.99996 5.00065C10.221 5.00065 10.4329 4.91285 10.5892 4.75657C10.7455 4.60029 10.8333 4.38833 10.8333 4.16732C10.8333 3.9463 10.7455 3.73434 10.5892 3.57806C10.4329 3.42178 10.221 3.33398 9.99996 3.33398C9.77895 3.33398 9.56698 3.42178 9.4107 3.57806C9.25442 3.73434 9.16663 3.9463 9.16663 4.16732Z" stroke="#9C9DA6" stroke-width="2" stroke-linecap="round" stroke-linejoin="round"/>
</svg>
