<svg width="16" height="16" viewBox="0 0 16 16" fill="none" xmlns="http://www.w3.org/2000/svg">
<path d="M1 5.5H15M1 10.5H15M7.58333 0.5C6.17945 2.74968 5.43517 5.34822 5.43517 8C5.43517 10.6518 6.17945 13.2503 7.58333 15.5M8.41667 0.5C9.82055 2.74968 10.5648 5.34822 10.5648 8C10.5648 10.6518 9.82055 13.2503 8.41667 15.5M0.5 8C0.5 8.98491 0.693993 9.96018 1.0709 10.8701C1.44781 11.7801 2.00026 12.6069 2.6967 13.3033C3.39314 13.9997 4.21993 14.5522 5.12987 14.9291C6.03982 15.306 7.01509 15.5 8 15.5C8.98491 15.5 9.96018 15.306 10.8701 14.9291C11.7801 14.5522 12.6069 13.9997 13.3033 13.3033C13.9997 12.6069 14.5522 11.7801 14.9291 10.8701C15.306 9.96018 15.5 8.98491 15.5 8C15.5 6.01088 14.7098 4.10322 13.3033 2.6967C11.8968 1.29018 9.98912 0.5 8 0.5C6.01088 0.5 4.10322 1.29018 2.6967 2.6967C1.29018 4.10322 0.5 6.01088 0.5 8Z" stroke="#1D2125" stroke-linecap="round" stroke-linejoin="round"/>
</svg>
