<svg width="32" height="32" viewBox="0 0 32 32" fill="none" xmlns="http://www.w3.org/2000/svg">
<circle cx="16" cy="16" r="16" fill="#F6F7F7"/>
<path d="M11.2153 21.6125C9.96756 21.6125 8.77095 21.1384 7.88867 20.2945C7.0064 19.4506 6.51074 18.306 6.51074 17.1125C6.51074 15.919 7.0064 14.7744 7.88867 13.9305C8.77095 13.0866 9.96756 12.6125 11.2153 12.6125C11.51 11.2997 12.3721 10.146 13.6119 9.40521C14.2258 9.03842 14.9139 8.78405 15.6371 8.65661C16.3602 8.52918 17.1041 8.53118 17.8264 8.6625C18.5487 8.79382 19.2351 9.05189 19.8466 9.42198C20.458 9.79207 20.9825 10.2669 21.39 10.8194C21.7976 11.3719 22.0802 11.9913 22.2218 12.6421C22.3634 13.2929 22.3612 13.9625 22.2153 14.6125H23.2153C24.1435 14.6125 25.0338 14.9812 25.6902 15.6376C26.3465 16.294 26.7153 17.1842 26.7153 18.1125C26.7153 19.0408 26.3465 19.931 25.6902 20.5874C25.0338 21.2438 24.1435 21.6125 23.2153 21.6125H22.2153M13.2153 18.6125L16.2153 15.6125M16.2153 15.6125L19.2153 18.6125M16.2153 15.6125V24.6125" stroke="#28293D" stroke-width="2" stroke-linecap="round" stroke-linejoin="round"/>
</svg>
