<svg width="20" height="20" viewBox="0 0 20 20" fill="none" xmlns="http://www.w3.org/2000/svg">
<path d="M12.75 5.75H12.76M0.75 13.75L5.75 8.75C6.678 7.857 7.822 7.857 8.75 8.75L13.75 13.75M11.75 11.75L12.75 10.75C13.678 9.857 14.822 9.857 15.75 10.75L18.75 13.75M0.75 3.75C0.75 2.95435 1.06607 2.19129 1.62868 1.62868C2.19129 1.06607 2.95435 0.75 3.75 0.75H15.75C16.5456 0.75 17.3087 1.06607 17.8713 1.62868C18.4339 2.19129 18.75 2.95435 18.75 3.75V15.75C18.75 16.5456 18.4339 17.3087 17.8713 17.8713C17.3087 18.4339 16.5456 18.75 15.75 18.75H3.75C2.95435 18.75 2.19129 18.4339 1.62868 17.8713C1.06607 17.3087 0.75 16.5456 0.75 15.75V3.75Z" stroke="#9C9DA6" stroke-width="1.5" stroke-linecap="round" stroke-linejoin="round"/>
</svg>
