<svg width="17" height="17" viewBox="0 0 17 17" fill="none" xmlns="http://www.w3.org/2000/svg">
<path d="M12.5 1.11658C13.7569 1.84229 14.8025 2.88368 15.5332 4.13766C16.2639 5.39164 16.6545 6.81472 16.6662 8.26603C16.6779 9.71733 16.3104 11.1465 15.6 12.4122C14.8896 13.6778 13.861 14.7359 12.616 15.4818C11.371 16.2278 9.95281 16.6356 8.50175 16.665C7.05069 16.6943 5.61713 16.3442 4.34296 15.6493C3.0688 14.9543 1.99823 13.9387 1.23722 12.7028C0.476219 11.467 0.0511744 10.0538 0.00416676 8.60324L0 8.33324L0.00416676 8.06324C0.050836 6.62407 0.469623 5.22155 1.2197 3.9924C1.96978 2.76326 3.02554 1.74945 4.28408 1.04981C5.54261 0.350171 6.96096 -0.0114257 8.40084 0.000275205C9.84072 0.0119761 11.253 0.396575 12.5 1.11658ZM8.34167 10.8332L8.23583 10.8391C8.03329 10.8632 7.84662 10.9607 7.71118 11.1132C7.57574 11.2657 7.50093 11.4626 7.50093 11.6666C7.50093 11.8705 7.57574 12.0674 7.71118 12.2199C7.84662 12.3724 8.03329 12.47 8.23583 12.4941L8.33333 12.4999L8.43917 12.4941C8.64171 12.47 8.82838 12.3724 8.96382 12.2199C9.09927 12.0674 9.17407 11.8705 9.17407 11.6666C9.17407 11.4626 9.09927 11.2657 8.96382 11.1132C8.82838 10.9607 8.64171 10.8632 8.43917 10.8391L8.34167 10.8332ZM8.33333 4.16658C8.12922 4.1666 7.93222 4.24154 7.77969 4.37717C7.62716 4.51281 7.52971 4.6997 7.50583 4.90241L7.5 4.99991V8.33324L7.50583 8.43074C7.52993 8.63328 7.62746 8.81996 7.77997 8.9554C7.93248 9.09084 8.12936 9.16565 8.33333 9.16565C8.5373 9.16565 8.73419 9.09084 8.8867 8.9554C9.0392 8.81996 9.13674 8.63328 9.16083 8.43074L9.16667 8.33324V4.99991L9.16083 4.90241C9.13695 4.6997 9.03951 4.51281 8.88698 4.37717C8.73445 4.24154 8.53745 4.1666 8.33333 4.16658Z" fill="#E6A01F"/>
</svg>